<?xml version="1.0" encoding="utf-8"?>
<!-- Generator: Adobe Illustrator 25.4.0, SVG Export Plug-In . SVG Version: 6.00 Build 0)  -->
<svg version="1.1" id="Layer_1" xmlns="http://www.w3.org/2000/svg" xmlns:xlink="http://www.w3.org/1999/xlink" x="0px" y="0px"
	 viewBox="0 0 42.9 43" style="enable-background:new 0 0 42.9 43;" xml:space="preserve">
<style type="text/css">
	.st0{fill:none;}
	.st1{fill:#C0C0C0;}
</style>
<g>
	<path class="st0" d="M-5.4-4.7h52.5c0.7,0,1.3,0.6,1.3,1.3v50.9c0,0.7-0.6,1.3-1.3,1.3H-5.4V-4.7z"/>
	<path class="st1" d="M42.9,8.1v26.8c0,2.2-0.8,4.1-2.4,5.7C38.9,42.2,37,43,34.8,43H8.1c-2.2,0-4.1-0.8-5.7-2.4
		C0.8,39,0,37.1,0,34.9V8.1C0,5.9,0.8,4,2.4,2.4S5.9,0,8.1,0h26.7c2.2,0,4.1,0.8,5.7,2.4C42.1,4,42.9,5.9,42.9,8.1z M36.1,14.3
		c0.2-4-1.3-6.1-4.5-6.2c-3.6-0.1-6.2,1.6-7.8,5C23.4,14,24,14.9,25,14.9c0.1,0,0.2,0,0.2,0c1.6,0,2.3,0.9,2.1,2.7
		c-0.1,1.1-0.8,2.6-2.1,4.7c-1.3,2-2.3,3.1-2.9,3.1c-0.8,0-1.6-1.6-2.3-4.7c-0.2-1-0.7-3.4-1.3-7.1c-0.6-3.5-2-5.2-4.5-4.9
		c-1.1,0.1-2.6,1.1-4.6,2.8c-0.5,0.4-1.3,1.1-2.3,2c-0.5,0.5-1,0.9-1.4,1.2c-0.5,0.4-0.6,1.2-0.2,1.7l0,0c0.4,0.5,1.2,0.6,1.7,0.3
		c0.8-0.6,1.3-0.8,1.4-0.8c1.1,0,2.1,1.7,3,5c0.3,1,0.7,2.6,1.3,4.6c0.6,2,1,3.5,1.3,4.5c0,0,0,0.1,0,0.1c1.3,3.3,2.8,4.9,4.6,4.9
		c2.9,0,6.5-2.7,10.7-8.2C33.9,21.4,36,17.3,36.1,14.3z"/>
</g>
</svg>
