<?xml version="1.0" encoding="UTF-8" standalone="no"?>
<!-- Created with Inkscape (http://www.inkscape.org/) -->

<svg
   xmlns:dc="http://purl.org/dc/elements/1.1/"
   xmlns:cc="http://creativecommons.org/ns#"
   xmlns:rdf="http://www.w3.org/1999/02/22-rdf-syntax-ns#"
   xmlns:svg="http://www.w3.org/2000/svg"
   xmlns="http://www.w3.org/2000/svg"
   xmlns:sodipodi="http://sodipodi.sourceforge.net/DTD/sodipodi-0.dtd"
   xmlns:inkscape="http://www.inkscape.org/namespaces/inkscape"
   width="105.16094mm"
   height="11.0744mm"
   viewBox="0 0 372.61751 39.24"
   id="svg4152"
   version="1.1"
   inkscape:version="0.91 r13725"
   sodipodi:docname="christina-heartmill-mail.svg">
  <defs
     id="defs4154" />
  <sodipodi:namedview
     id="base"
     pagecolor="#ffffff"
     bordercolor="#666666"
     borderopacity="1.0"
     inkscape:pageopacity="0.0"
     inkscape:pageshadow="2"
     inkscape:zoom="0.98994949"
     inkscape:cx="-58.094485"
     inkscape:cy="-173.90088"
     inkscape:document-units="px"
     inkscape:current-layer="flowRoot4160"
     showgrid="false"
     fit-margin-top="0"
     fit-margin-left="0"
     fit-margin-right="0"
     fit-margin-bottom="0"
     inkscape:window-width="1440"
     inkscape:window-height="852"
     inkscape:window-x="0"
     inkscape:window-y="0"
     inkscape:window-maximized="1" />
  <metadata
     id="metadata4157">
    <rdf:RDF>
      <cc:Work
         rdf:about="">
        <dc:format>image/svg+xml</dc:format>
        <dc:type
           rdf:resource="http://purl.org/dc/dcmitype/StillImage" />
        <dc:title />
      </cc:Work>
    </rdf:RDF>
  </metadata>
  <g
     inkscape:label="Ebene 1"
     inkscape:groupmode="layer"
     id="layer1"
     transform="translate(-98.702578,-319.22133)">
    <g
       style="font-style:normal;font-weight:normal;font-size:40px;line-height:125%;font-family:sans-serif;letter-spacing:0px;word-spacing:0px;fill:#000000;fill-opacity:1;stroke:none;stroke-width:1px;stroke-linecap:butt;stroke-linejoin:miter;stroke-opacity:1"
       id="flowRoot4160">
      <path
         d="m 111.06258,346.70133 1.36,1.64 q -1.08,0.88 -2.44,1.36 -1.32,0.48 -2.84,0.48 -1.76,0 -3.32,-0.64 -1.52,-0.68 -2.68,-1.8 -1.12,-1.12 -1.800002,-2.64 -0.64,-1.52 -0.64,-3.24 0,-1.72 0.64,-3.24 0.680002,-1.56 1.800002,-2.68 1.16,-1.12 2.68,-1.76 1.56,-0.68 3.32,-0.68 1.52,0 2.88,0.48 1.36,0.48 2.44,1.36 -0.32,0.44 -0.68,0.84 -0.36,0.36 -0.72,0.8 -1.64,-1.32 -3.92,-1.32 -1.32,0 -2.48,0.48 -1.12,0.48 -1.96,1.32 -0.84,0.8 -1.32,1.96 -0.48,1.12 -0.48,2.44 0,1.28 0.48,2.4 0.48,1.12 1.32,1.96 0.84,0.84 1.96,1.32 1.16,0.48 2.48,0.48 2.28,0 3.92,-1.32 z"
         style="font-style:normal;font-variant:normal;font-weight:normal;font-stretch:normal;font-family:'Josefin Sans';-inkscape-font-specification:'Josefin Sans';fill:#dddddd;fill-opacity:1"
         id="path4138" />
      <path
         d="m 116.42508,319.22133 2.2,0 0,18.52 q 0.8,-1.84 2.44,-3 1.68,-1.2 4.08,-1.24 2.4,0 3.8,1.32 1.4,1.32 1.48,3.48 l 0,11.56 -2.2,0 0,-10.8 q -0.08,-1.36 -0.96,-2.32 -0.88,-0.96 -2.64,-1.04 -1.28,0 -2.36,0.44 -1.08,0.4 -1.92,1.16 -0.8,0.76 -1.28,1.8 -0.44,1.04 -0.44,2.28 l 0,8.48 -2.2,0 0,-30.64 z"
         style="font-style:normal;font-variant:normal;font-weight:normal;font-stretch:normal;font-family:'Josefin Sans';-inkscape-font-specification:'Josefin Sans';fill:#dddddd;fill-opacity:1"
         id="path4140" />
      <path
         d="m 144.04195,336.26133 q -1.2,0 -2.32,0.4 -1.08,0.36 -1.92,1.04 -0.84,0.68 -1.36,1.68 -0.48,0.96 -0.48,2.16 l 0,8.32 -2.2,0 0,-16 1.88,0 0.2,4.12 q 0.48,-1.04 1.24,-1.84 0.76,-0.84 1.64,-1.4 0.92,-0.6 1.88,-0.92 1,-0.32 1.88,-0.32 l -0.44,2.76 z"
         style="font-style:normal;font-variant:normal;font-weight:normal;font-stretch:normal;font-family:'Josefin Sans';-inkscape-font-specification:'Josefin Sans';fill:#dddddd;fill-opacity:1"
         id="path4142" />
      <path
         d="m 146.9607,328.06133 q 0,-0.68 0.48,-1.12 0.52,-0.48 1.12,-0.48 0.6,0 1.08,0.48 0.48,0.44 0.48,1.12 0,0.72 -0.48,1.16 -0.48,0.44 -1.08,0.44 -0.6,0 -1.12,-0.44 -0.48,-0.44 -0.48,-1.16 z m 2.68,21.8 -2.2,0 0,-16 2.2,0 0,16 z"
         style="font-style:normal;font-variant:normal;font-weight:normal;font-stretch:normal;font-family:'Josefin Sans';-inkscape-font-specification:'Josefin Sans';fill:#dddddd;fill-opacity:1"
         id="path4144" />
      <path
         d="m 163.53695,335.38133 -1.2,1.56 q -0.32,-0.44 -1.28,-0.8 -0.92,-0.4 -1.88,-0.4 -0.4,0 -0.88,0.12 -0.44,0.12 -0.84,0.4 -0.36,0.24 -0.64,0.68 -0.24,0.4 -0.24,1 0,0.92 0.56,1.48 0.56,0.52 1.4,0.92 0.84,0.4 1.8,0.76 1,0.36 1.84,0.88 0.84,0.52 1.4,1.36 0.56,0.8 0.56,2.08 0,2 -1.36,3.4 -1.36,1.36 -3.88,1.36 -1.36,0 -2.8,-0.48 -1.4,-0.48 -2.28,-1.52 0.16,-0.16 0.4,-0.44 0.24,-0.28 0.44,-0.52 0.2,-0.24 0.32,-0.4 0.16,-0.2 0.2,-0.2 0.12,0.2 0.52,0.44 0.4,0.24 0.92,0.48 0.52,0.2 1.12,0.36 0.6,0.16 1.16,0.16 0.48,0 1,-0.12 0.56,-0.16 1,-0.48 0.48,-0.32 0.76,-0.8 0.28,-0.48 0.28,-1.16 0,-0.92 -0.56,-1.44 -0.56,-0.56 -1.4,-0.96 -0.84,-0.4 -1.84,-0.72 -1,-0.36 -1.84,-0.88 -0.84,-0.52 -1.4,-1.36 -0.56,-0.84 -0.56,-2.16 0,-1.2 0.44,-2 0.44,-0.84 1.12,-1.36 0.68,-0.56 1.52,-0.8 0.88,-0.24 1.68,-0.24 1.04,0 2.28,0.44 1.24,0.44 2.16,1.36 z"
         style="font-style:normal;font-variant:normal;font-weight:normal;font-stretch:normal;font-family:'Josefin Sans';-inkscape-font-specification:'Josefin Sans';fill:#dddddd;fill-opacity:1"
         id="path4146" />
      <path
         d="m 169.6182,326.86133 2.2,0 0,7.16 4.76,0 0,2 -4.76,0 0,13.84 -2.2,0 0,-13.84 -3.2,0 0,-2 3.2,0 0,-7.16 z"
         style="font-style:normal;font-variant:normal;font-weight:normal;font-stretch:normal;font-family:'Josefin Sans';-inkscape-font-specification:'Josefin Sans';fill:#dddddd;fill-opacity:1"
         id="path4148" />
      <path
         d="m 179.38258,328.06133 q 0,-0.68 0.48,-1.12 0.52,-0.48 1.12,-0.48 0.6,0 1.08,0.48 0.48,0.44 0.48,1.12 0,0.72 -0.48,1.16 -0.48,0.44 -1.08,0.44 -0.6,0 -1.12,-0.44 -0.48,-0.44 -0.48,-1.16 z m 2.68,21.8 -2.2,0 0,-16 2.2,0 0,16 z"
         style="font-style:normal;font-variant:normal;font-weight:normal;font-stretch:normal;font-family:'Josefin Sans';-inkscape-font-specification:'Josefin Sans';fill:#dddddd;fill-opacity:1"
         id="path4150" />
      <path
         d="m 187.55883,333.86133 1.88,0 0.2,4.12 q 0.88,-2 2.6,-3.24 1.72,-1.24 4.12,-1.24 2.36,0 3.72,1.32 1.4,1.32 1.48,3.48 l 0,11.56 -2.2,0 0,-10.8 q -0.08,-1.36 -0.96,-2.32 -0.88,-0.96 -2.64,-1.04 -1.28,0 -2.36,0.44 -1.08,0.4 -1.92,1.16 -0.8,0.76 -1.28,1.8 -0.44,1.04 -0.44,2.28 l 0,8.48 -2.2,0 0,-16 z"
         style="font-style:normal;font-variant:normal;font-weight:normal;font-stretch:normal;font-family:'Josefin Sans';-inkscape-font-specification:'Josefin Sans';fill:#dddddd;fill-opacity:1"
         id="path4152" />
      <path
         d="m 205.6557,341.94133 q 0,-1.72 0.64,-3.24 0.68,-1.56 1.8,-2.72 1.16,-1.16 2.68,-1.8 1.52,-0.68 3.24,-0.68 1.2,0 2.24,0.32 1.04,0.32 1.84,0.88 0.84,0.52 1.4,1.2 0.56,0.64 0.84,1.28 l 0.16,-3.32 2.04,0 0,16 -2.2,0 0,-1.64 q 0,-0.44 0,-0.84 0.04,-0.4 0.04,-0.76 -0.28,0.68 -0.84,1.32 -0.56,0.6 -1.4,1.12 -0.8,0.52 -1.84,0.8 -1.04,0.32 -2.28,0.32 -1.8,0 -3.36,-0.64 -1.52,-0.68 -2.64,-1.8 -1.08,-1.12 -1.72,-2.6 -0.64,-1.52 -0.64,-3.2 z m 2.2,-0.12 q 0,1.32 0.48,2.44 0.48,1.12 1.32,1.96 0.84,0.84 1.96,1.32 1.16,0.48 2.48,0.48 1.32,0 2.44,-0.48 1.16,-0.48 2,-1.32 0.84,-0.84 1.32,-1.96 0.48,-1.12 0.48,-2.44 0,-1.28 -0.48,-2.4 -0.48,-1.12 -1.32,-1.96 -0.84,-0.84 -2,-1.32 -1.12,-0.48 -2.44,-0.48 -1.32,0 -2.48,0.48 -1.12,0.48 -1.96,1.32 -0.84,0.8 -1.32,1.92 -0.48,1.12 -0.48,2.44 z"
         style="font-style:normal;font-variant:normal;font-weight:normal;font-stretch:normal;font-family:'Josefin Sans';-inkscape-font-specification:'Josefin Sans';fill:#dddddd;fill-opacity:1"
         id="path4154" />
      <path
         d="m 234.78758,341.94133 q 0,-1.72 0.64,-3.24 0.68,-1.56 1.8,-2.72 1.16,-1.16 2.68,-1.8 1.52,-0.68 3.24,-0.68 1.2,0 2.24,0.32 1.04,0.32 1.84,0.88 0.84,0.52 1.4,1.2 0.56,0.64 0.84,1.28 l 0.16,-3.32 2.04,0 0,13.96 2.2,0 q 0.76,0 1.52,-0.36 0.76,-0.36 1.36,-1.16 0.64,-0.84 1,-2.12 0.4,-1.28 0.4,-3.12 0,-2.68 -1,-5.16 -1,-2.48 -2.84,-4.32 -1.8,-1.88 -4.4,-3 -2.6,-1.12 -5.8,-1.12 -3.52,0 -6.28,1.28 -2.72,1.24 -4.64,3.28 -1.88,2.04 -2.88,4.68 -1,2.6 -1,5.32 0,2.96 1.12,5.6 1.16,2.6 3.08,4.56 1.96,1.96 4.6,3.08 2.64,1.12 5.64,1.12 2.4,0 4.56,-0.72 2.2,-0.72 4.04,-2 l 1.28,1.52 q -2.04,1.6 -4.68,2.44 -2.6,0.84 -5.28,0.84 -3.4,0 -6.4,-1.32 -3,-1.28 -5.28,-3.52 -2.24,-2.24 -3.56,-5.24 -1.28,-3 -1.28,-6.44 0,-3.2 1.2,-6.2 1.2,-3 3.4,-5.28 2.24,-2.32 5.36,-3.68 3.16,-1.4 7.04,-1.4 3.68,0 6.68,1.28 3,1.28 5.08,3.44 2.12,2.16 3.24,5 1.16,2.84 1.16,5.92 0,2.36 -0.52,4.04 -0.52,1.64 -1.44,2.72 -0.88,1.08 -2.08,1.6 -1.2,0.48 -2.52,0.48 l -4.28,0 0,-1.64 q 0,-0.44 0,-0.84 0.04,-0.4 0.04,-0.76 -0.28,0.68 -0.84,1.32 -0.56,0.6 -1.4,1.12 -0.8,0.52 -1.84,0.8 -1.04,0.32 -2.28,0.32 -1.8,0 -3.36,-0.64 -1.52,-0.68 -2.64,-1.8 -1.08,-1.12 -1.72,-2.6 -0.64,-1.52 -0.64,-3.2 z m 2.2,-0.12 q 0,1.32 0.48,2.44 0.48,1.12 1.32,1.96 0.84,0.84 1.96,1.32 1.16,0.48 2.48,0.48 1.32,0 2.44,-0.48 1.16,-0.48 2,-1.32 0.84,-0.84 1.32,-1.96 0.48,-1.12 0.48,-2.44 0,-1.28 -0.48,-2.4 -0.48,-1.12 -1.32,-1.96 -0.84,-0.84 -2,-1.32 -1.12,-0.48 -2.44,-0.48 -1.32,0 -2.48,0.48 -1.12,0.48 -1.96,1.32 -0.84,0.8 -1.32,1.92 -0.48,1.12 -0.48,2.44 z"
         style="font-style:normal;font-variant:normal;font-weight:normal;font-stretch:normal;font-family:'Josefin Sans';-inkscape-font-specification:'Josefin Sans';fill:#dddddd;fill-opacity:1"
         id="path4156" />
      <path
         d="m 265.48758,319.22133 2.2,0 0,18.52 q 0.8,-1.84 2.44,-3 1.68,-1.2 4.08,-1.24 2.4,0 3.8,1.32 1.4,1.32 1.48,3.48 l 0,11.56 -2.2,0 0,-10.8 q -0.08,-1.36 -0.96,-2.32 -0.88,-0.96 -2.64,-1.04 -1.28,0 -2.36,0.44 -1.08,0.4 -1.92,1.16 -0.8,0.76 -1.28,1.8 -0.44,1.04 -0.44,2.28 l 0,8.48 -2.2,0 0,-30.64 z"
         style="font-style:normal;font-variant:normal;font-weight:normal;font-stretch:normal;font-family:'Josefin Sans';-inkscape-font-specification:'Josefin Sans';fill:#dddddd;fill-opacity:1"
         id="path4158" />
      <path
         d="m 298.02445,347.94133 q -1.16,1.04 -2.72,1.64 -1.56,0.6 -3.24,0.6 -1.76,0 -3.32,-0.64 -1.52,-0.68 -2.68,-1.8 -1.12,-1.12 -1.8,-2.64 -0.64,-1.52 -0.64,-3.24 0,-1.72 0.64,-3.24 0.68,-1.56 1.8,-2.68 1.16,-1.16 2.68,-1.8 1.52,-0.68 3.24,-0.68 2.64,0 4.56,1.6 1.96,1.6 2.88,4.08 -1.36,0.52 -3.04,1.2 -1.64,0.64 -3.4,1.36 -1.72,0.68 -3.44,1.4 -1.72,0.68 -3.2,1.28 0.72,1.64 2.2,2.64 1.52,1 3.44,1 1.28,0 2.44,-0.44 1.16,-0.44 1.96,-1.2 l 1.64,1.56 z m -1.36,-9.36 q -0.68,-1.36 -1.92,-2.12 -1.24,-0.8 -2.76,-0.8 -1.28,0 -2.4,0.52 -1.12,0.48 -1.96,1.32 -0.84,0.84 -1.32,1.96 -0.48,1.08 -0.48,2.32 0,0.64 0.12,1.12 1.24,-0.52 2.64,-1.08 1.4,-0.56 2.8,-1.12 1.4,-0.6 2.76,-1.12 1.36,-0.56 2.52,-1 z"
         style="font-style:normal;font-variant:normal;font-weight:normal;font-stretch:normal;font-family:'Josefin Sans';-inkscape-font-specification:'Josefin Sans';fill:#dddddd;fill-opacity:1"
         id="path4160" />
      <path
         d="m 301.9057,341.94133 q 0,-1.72 0.64,-3.24 0.68,-1.56 1.8,-2.72 1.16,-1.16 2.68,-1.8 1.52,-0.68 3.24,-0.68 1.2,0 2.24,0.32 1.04,0.32 1.84,0.88 0.84,0.52 1.4,1.2 0.56,0.64 0.84,1.28 l 0.16,-3.32 2.04,0 0,16 -2.2,0 0,-1.64 q 0,-0.44 0,-0.84 0.04,-0.4 0.04,-0.76 -0.28,0.68 -0.84,1.32 -0.56,0.6 -1.4,1.12 -0.8,0.52 -1.84,0.8 -1.04,0.32 -2.28,0.32 -1.8,0 -3.36,-0.64 -1.52,-0.68 -2.64,-1.8 -1.08,-1.12 -1.72,-2.6 -0.64,-1.52 -0.64,-3.2 z m 2.2,-0.12 q 0,1.32 0.48,2.44 0.48,1.12 1.32,1.96 0.84,0.84 1.96,1.32 1.16,0.48 2.48,0.48 1.32,0 2.44,-0.48 1.16,-0.48 2,-1.32 0.84,-0.84 1.32,-1.96 0.48,-1.12 0.48,-2.44 0,-1.28 -0.48,-2.4 -0.48,-1.12 -1.32,-1.96 -0.84,-0.84 -2,-1.32 -1.12,-0.48 -2.44,-0.48 -1.32,0 -2.48,0.48 -1.12,0.48 -1.96,1.32 -0.84,0.8 -1.32,1.92 -0.48,1.12 -0.48,2.44 z"
         style="font-style:normal;font-variant:normal;font-weight:normal;font-stretch:normal;font-family:'Josefin Sans';-inkscape-font-specification:'Josefin Sans';fill:#dddddd;fill-opacity:1"
         id="path4162" />
      <path
         d="m 332.55758,336.26133 q -1.2,0 -2.32,0.4 -1.08,0.36 -1.92,1.04 -0.84,0.68 -1.36,1.68 -0.48,0.96 -0.48,2.16 l 0,8.32 -2.2,0 0,-16 1.88,0 0.2,4.12 q 0.48,-1.04 1.24,-1.84 0.76,-0.84 1.64,-1.4 0.92,-0.6 1.88,-0.92 1,-0.32 1.88,-0.32 l -0.44,2.76 z"
         style="font-style:normal;font-variant:normal;font-weight:normal;font-stretch:normal;font-family:'Josefin Sans';-inkscape-font-specification:'Josefin Sans';fill:#dddddd;fill-opacity:1"
         id="path4164" />
      <path
         d="m 337.19633,326.86133 2.2,0 0,7.16 4.76,0 0,2 -4.76,0 0,13.84 -2.2,0 0,-13.84 -3.2,0 0,-2 3.2,0 0,-7.16 z"
         style="font-style:normal;font-variant:normal;font-weight:normal;font-stretch:normal;font-family:'Josefin Sans';-inkscape-font-specification:'Josefin Sans';fill:#dddddd;fill-opacity:1"
         id="path4166" />
      <path
         d="m 347.4807,333.86133 1.88,0 q 0.04,0.36 0.04,0.96 0.04,0.56 0.08,1.2 0.04,0.6 0.04,1.16 0.04,0.52 0.04,0.8 0.88,-2 2.48,-3.2 1.64,-1.24 4.04,-1.28 2.24,0 3.6,1.2 1.36,1.16 1.6,3.08 0.92,-1.92 2.48,-3.08 1.6,-1.16 3.96,-1.2 2.4,0 3.76,1.32 1.4,1.32 1.48,3.48 l 0,11.56 -2.2,0 0,-10.8 q -0.08,-1.36 -0.96,-2.32 -0.88,-0.96 -2.64,-1.04 -1.24,0 -2.32,0.44 -1.04,0.4 -1.84,1.16 -0.76,0.72 -1.2,1.76 -0.44,1 -0.48,2.2 l 0,8.6 -2.2,0 0,-10.8 q -0.08,-1.36 -0.96,-2.32 -0.88,-0.96 -2.6,-1.04 -1.28,0 -2.36,0.44 -1.04,0.4 -1.84,1.16 -0.8,0.76 -1.24,1.8 -0.44,1.04 -0.44,2.28 l 0,8.48 -2.2,0 0,-16 z"
         style="font-style:normal;font-variant:normal;font-weight:normal;font-stretch:normal;font-family:'Josefin Sans';-inkscape-font-specification:'Josefin Sans';fill:#dddddd;fill-opacity:1"
         id="path4168" />
      <path
         d="m 377.74195,328.06133 q 0,-0.68 0.48,-1.12 0.52,-0.48 1.12,-0.48 0.6,0 1.08,0.48 0.48,0.44 0.48,1.12 0,0.72 -0.48,1.16 -0.48,0.44 -1.08,0.44 -0.6,0 -1.12,-0.44 -0.48,-0.44 -0.48,-1.16 z m 2.68,21.8 -2.2,0 0,-16 2.2,0 0,16 z"
         style="font-style:normal;font-variant:normal;font-weight:normal;font-stretch:normal;font-family:'Josefin Sans';-inkscape-font-specification:'Josefin Sans';fill:#dddddd;fill-opacity:1"
         id="path4170" />
      <path
         d="m 388.1582,349.86133 -2.2,0 0,-30.64 2.2,0 0,30.64 z"
         style="font-style:normal;font-variant:normal;font-weight:normal;font-stretch:normal;font-family:'Josefin Sans';-inkscape-font-specification:'Josefin Sans';fill:#dddddd;fill-opacity:1"
         id="path4172" />
      <path
         d="m 395.9707,349.86133 -2.2,0 0,-30.64 2.2,0 0,30.64 z"
         style="font-style:normal;font-variant:normal;font-weight:normal;font-stretch:normal;font-family:'Josefin Sans';-inkscape-font-specification:'Josefin Sans';fill:#dddddd;fill-opacity:1"
         id="path4174" />
      <path
         d="m 401.3432,348.22133 q 0,-0.68 0.48,-1.16 0.48,-0.48 1.12,-0.48 0.6,0 1.08,0.48 0.52,0.48 0.52,1.16 0,0.72 -0.52,1.2 -0.48,0.44 -1.08,0.44 -0.64,0 -1.12,-0.44 -0.48,-0.48 -0.48,-1.2 z"
         style="font-style:normal;font-variant:normal;font-weight:normal;font-stretch:normal;font-family:'Josefin Sans';-inkscape-font-specification:'Josefin Sans';fill:#dddddd;fill-opacity:1"
         id="path4176" />
      <path
         d="m 421.06258,346.70133 1.36,1.64 q -1.08,0.88 -2.44,1.36 -1.32,0.48 -2.84,0.48 -1.76,0 -3.32,-0.64 -1.52,-0.68 -2.68,-1.8 -1.12,-1.12 -1.8,-2.64 -0.64,-1.52 -0.64,-3.24 0,-1.72 0.64,-3.24 0.68,-1.56 1.8,-2.68 1.16,-1.12 2.68,-1.76 1.56,-0.68 3.32,-0.68 1.52,0 2.88,0.48 1.36,0.48 2.44,1.36 -0.32,0.44 -0.68,0.84 -0.36,0.36 -0.72,0.8 -1.64,-1.32 -3.92,-1.32 -1.32,0 -2.48,0.48 -1.12,0.48 -1.96,1.32 -0.84,0.8 -1.32,1.96 -0.48,1.12 -0.48,2.44 0,1.28 0.48,2.4 0.48,1.12 1.32,1.96 0.84,0.84 1.96,1.32 1.16,0.48 2.48,0.48 2.28,0 3.92,-1.32 z"
         style="font-style:normal;font-variant:normal;font-weight:normal;font-stretch:normal;font-family:'Josefin Sans';-inkscape-font-specification:'Josefin Sans';fill:#dddddd;fill-opacity:1"
         id="path4178" />
      <path
         d="m 424.7182,341.86133 q 0,-1.72 0.64,-3.24 0.68,-1.56 1.8,-2.68 1.16,-1.16 2.68,-1.8 1.56,-0.68 3.32,-0.68 1.76,0 3.28,0.68 1.56,0.64 2.68,1.8 1.12,1.12 1.76,2.68 0.64,1.52 0.64,3.24 0,1.72 -0.64,3.24 -0.64,1.52 -1.8,2.64 -1.12,1.12 -2.64,1.8 -1.52,0.64 -3.32,0.64 -1.76,0 -3.28,-0.6 -1.52,-0.64 -2.68,-1.76 -1.12,-1.12 -1.8,-2.64 -0.64,-1.52 -0.64,-3.32 z m 2.2,0 q 0,1.28 0.48,2.4 0.48,1.12 1.32,1.96 0.84,0.84 1.96,1.32 1.12,0.48 2.4,0.48 1.28,0 2.4,-0.48 1.16,-0.48 2,-1.32 0.84,-0.84 1.32,-1.96 0.48,-1.12 0.48,-2.4 0,-1.28 -0.48,-2.4 -0.48,-1.16 -1.32,-2 -0.84,-0.84 -2,-1.32 -1.12,-0.48 -2.4,-0.48 -1.28,0 -2.4,0.48 -1.12,0.48 -1.96,1.32 -0.84,0.84 -1.32,2 -0.48,1.12 -0.48,2.4 z"
         style="font-style:normal;font-variant:normal;font-weight:normal;font-stretch:normal;font-family:'Josefin Sans';-inkscape-font-specification:'Josefin Sans';fill:#dddddd;fill-opacity:1"
         id="path4180" />
      <path
         d="m 445.84008,333.86133 1.88,0 q 0.04,0.36 0.04,0.96 0.04,0.56 0.08,1.2 0.04,0.6 0.04,1.16 0.04,0.52 0.04,0.8 0.88,-2 2.48,-3.2 1.64,-1.24 4.04,-1.28 2.24,0 3.6,1.2 1.36,1.16 1.6,3.08 0.92,-1.92 2.48,-3.08 1.6,-1.16 3.96,-1.2 2.4,0 3.76,1.32 1.4,1.32 1.48,3.48 l 0,11.56 -2.2,0 0,-10.8 q -0.08,-1.36 -0.96,-2.32 -0.88,-0.96 -2.64,-1.04 -1.24,0 -2.32,0.44 -1.04,0.4 -1.84,1.16 -0.76,0.72 -1.2,1.76 -0.44,1 -0.48,2.2 l 0,8.6 -2.2,0 0,-10.8 q -0.08,-1.36 -0.96,-2.32 -0.88,-0.96 -2.6,-1.04 -1.28,0 -2.36,0.44 -1.04,0.4 -1.84,1.16 -0.8,0.76 -1.24,1.8 -0.44,1.04 -0.44,2.28 l 0,8.48 -2.2,0 0,-16 z"
         style="font-style:normal;font-variant:normal;font-weight:normal;font-stretch:normal;font-family:'Josefin Sans';-inkscape-font-specification:'Josefin Sans';fill:#dddddd;fill-opacity:1"
         id="path4182" />
    </g>
  </g>
</svg>
